<svg xmlns="http://www.w3.org/2000/svg" viewBox="0 0 300 212.7">
<path d="M 299.41,49.22 L 248.44,49.22 L 205.08,97.85 L 179.30,67.38 L 128.32,67.38 L 175.20,124.80 L 208.01,108.40 L 92.58,212.11 L 157.62,212.11 L 202.15,162.30 L 242.58,212.11 L 293.55,212.11 L 229.10,132.42 Z M 77.93,0.00 L 38.09,18.75 L 38.67,48.05 L 33.40,49.22 L 18.75,48.63 L 0.00,81.45 L 38.67,82.03 L 38.67,172.27 L 40.43,181.05 L 45.12,192.19 L 53.91,202.73 L 62.70,208.59 L 73.24,212.11 L 76.17,212.11 L 115.43,175.78 L 101.37,175.78 L 91.41,173.44 L 82.62,166.41 L 79.69,161.13 L 77.93,153.52 L 77.93,82.03 L 99.02,81.45 L 127.15,49.22 L 79.10,49.22 L 77.93,48.05 Z" fill="#123A65" fill-rule="evenodd"/>
</svg>
